{"title":"Kung.Fu.Panda.3.2016.3D.1080p.BRRip.Eng &amp; Tamil","uid":15367387,"size":1657140499,"categoryP":"video","categoryS":"movies","magnet":"?xt=urn:btih:1ddc2125e5b5ab8c79f0af6c337dd93b5809d5e2&amp;dn=Kung.Fu.Panda.3.2016.3D.1080p.BRRip.Eng+%26amp%3B+Tamil&amp;tr=udp%3A%2F%2Ftracker.leechers-paradise.org%3A6969&amp;tr=udp%3A%2F%2Fzer0day.ch%3A1337&amp;tr=udp%3A%2F%2Fopen.demonii.com%3A1337&amp;tr=udp%3A%2F%2Ftracker.coppersurfer.tk%3A6969&amp;tr=udp%3A%2F%2Fexodus.desync.com%3A6969","seeders":1,"leechers":2,"uploader":"nukerizvi","files":2,"time":1469092981,"description":"General\r\nUnique ID                   : 243929087084302775856982009308913332612 (0xB7830887272666CEA120D165F2A7F184)\r\nComplete name               : D:UplodKung.Fu.Panda.3.2016.3D.1080p.BRRip.Eng &amp; TamilKung.Fu.Panda.3.2016.3D.1080p.BRRip.Eng &amp;   \r\nFormat                      : Matroska\r\nFormat version              : Version 4 / Version 2\r\nFile size                   : 1.53 GiB\r\nDuration                    : 1h 34mn\r\nOverall bit rate            : 2 315 Kbps\r\nEncoded date                : UTC 2016-07-20 07:00:45\r\nWriting application         : mkvmerge v8.8.0 ('Wind at my back') 64bit\r\nWriting library             : libebml v1.3.3 + libmatroska v1.4.4\r\n\r\nVideo\r\nID                          : 1\r\nFormat                      : AVC\r\nFormat/Info                 : Advanced Video Codec\r\nFormat profile              :   \r\nFormat settings, CABAC      : Yes\r\nFormat settings, ReFrames   : 5 frames\r\nCodec ID                    : V_MPEG4/ISO/AVC\r\nDuration                    : 1h 34mn\r\nBit rate                    : 1 999 Kbps\r\nWidth                       : 1 920 pixels\r\nHeight                      : 816 pixels\r\nDisplay aspect ratio        : 2.35:1\r\nFrame rate mode             : Constant\r\nFrame rate                  : 23.976 (24000/1001) fps\r\nColor space                 : YUV\r\nChroma subsampling          : 4:2:0\r\nBit depth                   : 8 bits\r\nScan type                   : Progressive\r\nBits/(Pixel*Frame)          : 0.053\r\nStream size                 : 1.32 GiB (86%)\r\nTitle                       :   \r\nWriting library             : x264 core 148 r2638 7599210\r\nEncoding settings           : cabac=1 / ref=5 / deblock=1:-1:-1 / analyse=0x3:0x113 / me=umh / subme=9 / psy=1 / psy_rd=1.00:0.15 / mixed_ref=1 / me_range=24 / chroma_me=1 / trellis=2 / 8x8dct=1 / cqm=0 / deadzone=21,11 / fast_pskip=0 / chroma_qp_offset=-3 / threads=25 / lookahead_threads=2 / sliced_threads=0 / nr=0 / decimate=1 / interlaced=0 / bluray_compat=0 / constrained_intra=0 / bframes=3 / b_pyramid=2 / b_adapt=2 / b_bias=0 / direct=3 / weightb=1 / open_gop=0 / weightp=2 / keyint=240 / keyint_min=23 / scenecut=40 / intra_refresh=0 / rc_lookahead=60 / rc=2pass / mbtree=1 / bitrate=1999 / ratetol=1.0 / qcomp=0.60 / qpmin=0 / qpmax=69 / qpstep=4 / cplxblur=20.0 / qblur=0.5 / vbv_maxrate=31250 / vbv_bufsize=31250 / nal_hrd=none / filler=0 / ip_ratio=1.40 / aq=1:1.00\r\nDefault                     : Yes\r\nForced                      : No\r\nColor range                 : Limited\r\nColor primaries             : BT.709\r\nMatrix coefficients         : BT.709\r\n\r\nAudio #1\r\nID                          : 2\r\nFormat                      : AC-3\r\nFormat/Info                 : Audio Coding 3\r\nMode extension              : CM (complete main)\r\nFormat settings, Endianness : Big\r\nCodec ID                    : A_AC3\r\nDuration                    : 1h 34mn\r\nBit rate mode               : Constant\r\nBit rate                    : 128 Kbps\r\nChannel(s)                  : 2 channels\r\nChannel positions           : Front: L R\r\nSampling rate               : 48.0 KHz\r\nFrame rate                  : 31.250 fps (1536 spf)\r\nCompression mode            : Lossy\r\nStream size                 : 86.9 MiB (6%)\r\nTitle                       :   \r\nLanguage                    : Tamil\r\nDefault                     : Yes\r\nForced                      : Yes\r\n\r\nAudio #2\r\nID                          : 3\r\nFormat                      : AAC\r\nFormat/Info                 : Advanced Audio Codec\r\nFormat profile              : HE-AAC / LC\r\nCodec ID                    : A_AAC\r\nDuration                    : 1h 34mn\r\nBit rate                    : 187 Kbps\r\nChannel(s)                  : 6 channels\r\nChannel positions           : Front: L C R, Side: L R, LFE\r\nSampling rate               : 48.0 KHz / 24.0 KHz\r\nFrame rate                  : 23.438 fps (1024 spf)\r\nCompression mode            : Lossy\r\nDelay relative to video     : 31ms\r\nStream size                 : 127 MiB (8%)\r\nTitle                       :   \r\nLanguage                    : English\r\nDefault                     : No\r\nForced                      : No\r\n\r\nText\r\nID                          : 4\r\nFormat                      : UTF-8\r\nCodec ID                    : S_TEXT/UTF8\r\nCodec ID/Info               : UTF-8 Plain Text\r\nDuration                    : 1h 34mn\r\nBit rate                    : 0 bps\r\nCount of elements           : 22\r\nStream size                 : 568 Bytes (0%)\r\nTitle                       :   \r\nDefault                     : Yes\r\nForced                      : Yes","torrent":{"xt":"urn:btih:1ddc2125e5b5ab8c79f0af6c337dd93b5809d5e2","amp;dn":"Kung.Fu.Panda.3.2016.3D.1080p.BRRip.Eng+%26amp%3B+Tamil","amp;tr":["udp%3A%2F%2Ftracker.leechers-paradise.org%3A6969","udp%3A%2F%2Fzer0day.ch%3A1337","udp%3A%2F%2Fopen.demonii.com%3A1337","udp%3A%2F%2Ftracker.coppersurfer.tk%3A6969","udp%3A%2F%2Fexodus.desync.com%3A6969"],"infoHash":"1ddc2125e5b5ab8c79f0af6c337dd93b5809d5e2","infoHashBuffer":{"type":"Buffer","data":[29,220,33,37,229,181,171,140,121,240,175,108,51,125,217,59,88,9,213,226]},"announce":[],"urlList":[]}}